<svg version="1.2" xmlns="http://www.w3.org/2000/svg" viewBox="0 0 250 94" width="250" height="94"><style>.a{fill:#ffdd65}.b{fill:#418348}.c{fill:#7ec25e}.d{fill:#064c05}</style><path class="a" d="m45.5 63c-2.8 1-6.6 3.4-8.5 5.2-1.9 1.9-4 5.2-4.7 7.3-0.6 2.2-1.4 5.7-1.7 7.8-0.4 2.2-0.2 3.7 0.4 3.7 0.6 0 4.3-1.5 8.3-3.3 3.9-1.8 7.9-4.4 8.8-5.8 0.9-1.3 2.3-4.4 3.2-6.9 0.9-2.5 1.7-5.6 1.7-7 0.1-1.3-0.5-2.6-1.2-2.7-0.7-0.1-3.6 0.6-6.3 1.7z"/><path fill-rule="evenodd" class="b" d="m226.9 58c0.3-0.1 1.1 0.5 1.8 1.2 0.6 0.7 3.2 6.3 5.8 12.3 2.5 6 5 11.6 5.6 12.3 0.5 0.6 0.7 1.9 0.4 2.7-0.3 0.8-1.2 1.5-2 1.5-0.8 0-2.5-2-6-9.1l-11 0.6-1.3 4.2c-0.7 2.6-1.8 4.3-2.7 4.3-0.8 0-1.8-0.8-2.2-1.8-0.4-1.1 1.4-5.8 5-13 3.2-6.2 5.3-11.4 4.7-11.7-0.6-0.3-0.6-1 0.1-2 0.6-0.8 1.4-1.5 1.8-1.5zm-2.7 16.5c4.9 0.4 6.4 0.4 6.6 0.3 0.2-0.2-0.4-2-1.3-4.1-0.8-2-1.7-3.7-1.9-3.7-0.2 0-1.1 1.7-1.9 3.7z"/><path fill-rule="evenodd" class="b" d="m197.2 58.1c6 0.4 7.2 0.7 8.9 2.9 1.2 1.5 2 4 1.9 6 0 2.4-0.9 4.3-5.1 8.5l5.1 4.7c3 2.9 4.8 5.4 4.5 6.3-0.3 0.8-1.3 1.5-2.2 1.5-1 0-4-2.5-6.8-5.5-2.8-3.1-5.9-5.5-7-5.5-1.8 0-2 0.5-1.5 5 0.4 4.4 0.3 5.1-1.5 5.6-1.1 0.3-2.3 0.2-2.7-0.3-0.4-0.4-0.7-6.9-0.8-14.3-0.1-7.4 0-13.9 0.1-14.4 0.1-0.4 3.3-0.7 7.1-0.5zm-2.2 15.9c4.3-0.8 6.3-2.1 7.3-3.3 1-1.2 1.8-3 1.7-4 0-0.9-0.7-2.4-1.5-3.2-0.8-0.8-2.8-1.5-4.5-1.5h-3z"/><path fill-rule="evenodd" class="b" d="m169 58c4.1 0 6.4 0.5 9 2.3 1.9 1.2 4.1 3.4 4.7 4.7 0.7 1.4 1.3 4.8 1.3 7.5 0 3.6-0.6 6-2.3 8.5-1.3 1.9-4.1 4.3-6.3 5.4-2.8 1.3-5.5 1.8-9.6 1.5-4.3-0.3-6.3-1-8.3-2.9-1.5-1.4-3.4-4-4.1-5.8-0.8-1.7-1.4-4.7-1.4-6.5 0-1.8 1.2-4.9 2.6-7.1 1.5-2.1 4-4.7 5.8-5.7 2-1.3 5-1.9 8.6-1.9zm-5 4.4c-1.4 0.4-3.5 2.1-4.8 3.9-1.2 1.7-2.2 4.7-2.2 6.4 0 1.8 0.7 4.6 1.5 6.3 0.8 1.7 2.4 3.5 3.5 4 1.1 0.5 4 1 6.5 1 3.2 0 5.2-0.6 7.1-2.3 1.4-1.2 2.8-3.8 3.2-5.7 0.4-1.9 0.6-4.6 0.5-6-0.2-1.4-1.5-3.7-3-5.2-1.6-1.5-3.9-2.9-5.3-3.1-1.4-0.2-3-0.2-3.5-0.1-0.6 0.1-2.1 0.5-3.5 0.8z"/><path class="b" d="m134.5 58.8c-0.6 0.4-0.9 6.3-0.8 15l0.3 14.2c15-0.5 15.5-0.7 15.8-2.7 0.2-2.2 0-2.3-5.3-1.5l-5.5 0.7c-0.5-23.6-0.8-26-2-26.2-0.8-0.2-1.9 0-2.5 0.5z"/><path class="b" d="m111.1 72.5c0 8.8 0.3 14.7 0.9 15 0.6 0.3 1.8 0.3 2.8 0 1.4-0.4 1.7-1.5 1.5-7l-0.3-6.5c9.1-0.4 10.5-0.9 10.5-2 0-1.2-1.1-1.4-5.2-1.3l-5.3 0.3v-9c10.9 0.5 11.5 0.3 11.5-1.5 0-1.8-0.8-2-8.1-2.3l-8.1-0.3z"/><path class="b" d="m89 73v15c14.8-0.5 15.5-0.7 15.5-2.5 0-1.8-0.6-2-5.8-1.8l-5.7 0.3v-10c10.3 0 11-0.2 11-2 0-1.7-0.7-2-5.3-2h-5.2l1-8.2c8.8 0.6 10.6 0.3 11-0.6 0.3-0.6 0.3-1.7 0-2.2-0.3-0.5-4.1-1-8.5-1h-8z"/><path fill-rule="evenodd" class="b" d="m61.5 58h5.5c3 0 6.6 0.6 8 1.3 1.3 0.6 3.1 2.3 3.9 3.7 0.8 1.5 1.1 3.6 0.7 5.3-0.3 1.5-1.7 3.7-5.6 7.2l5 4.8c3 2.8 4.8 5.3 4.5 6.2-0.3 0.8-1.2 1.5-2 1.5-0.8 0-3.9-2.5-6.8-5.5-2.8-3-6.1-5.5-7.2-5.5-1.8 0-2 0.5-1.5 5 0.4 4.4 0.3 5.1-1.5 5.6-1.1 0.3-2.2 0.2-2.5-0.1-0.3-0.4-0.5-7.2-0.5-15.1zm6.3 16.1c0.9 0 2.9-0.9 4.5-2 1.9-1.5 2.7-3 2.7-5.1q0-3-2-4c-1.1-0.5-3.1-1-4.5-1-2.4 0-2.5 0.3-2.5 6 0 5.1 0.3 6 1.8 6.1z"/><path class="c" d="m17 45.5c-4.1 1.4-7.9 3-8.5 3.6-0.7 0.7 0 1.9 2.1 3.7 1.8 1.5 6 4.2 9.5 6 4.2 2.1 7.8 3.2 10.4 3.2 2.2 0 6.5-0.7 9.5-1.5 3-0.8 7.3-2.1 9.5-3.1l4-1.6c-5.4-4.5-10-7.3-13.8-9.3-4.7-2.4-8-3.5-10.9-3.5-2.4 0.1-7.7 1.2-11.8 2.5z"/><path class="d" d="m83.5 14.2c-3.8 2.2-8.8 5.4-10.9 7.2-2.2 1.7-4.7 4.9-5.7 7.1-1 2.2-2.4 8.3-3.3 13.5-0.8 5.2-1.3 9.8-1 10.3 0.2 0.4 4.1-1.2 8.7-3.5 4.5-2.4 10.1-6.1 12.3-8.3 3-2.8 4.7-5.7 5.9-9.5 0.9-3 1.9-9 2.1-13.3 0.3-4.2 0.2-7.7-0.3-7.6-0.4 0-4 1.8-7.8 4.1z"/><path class="b" d="m35.4 8.7c-0.4 0.4-0.7 4.7-0.6 9.7 0.1 5 0.5 10.7 0.9 12.6 0.5 2.2 2.6 5.5 5.9 9 2.8 3 7.2 7 9.8 8.8 4.1 2.9 4.7 3 5.4 1.5 0.4-1 0.7-6.1 0.6-11.3 0-7.5-0.5-10.3-2.1-13.5-1.1-2.2-3.8-5.6-5.9-7.5-2.2-2-6-5-8.6-6.7-2.5-1.8-5-2.9-5.4-2.6z"/></svg>